<svg xmlns="http://www.w3.org/2000/svg" viewBox="0 0 64 64" fill="none">
  <!-- Globo aerostático de Cursos Umme -->
  <!-- Cuerpo del globo -->
  <path d="M32 5 C18 5 11 17 11 30 C11 40 15 47 20 51 L44 51 C49 47 53 40 53 30 C53 17 46 5 32 5 Z"
        fill="#f49a8e" stroke="#1a1a1a" stroke-width="2" stroke-linejoin="round"/>
  <!-- Costuras verticales -->
  <path d="M21 6 Q18 28 22 51" stroke="#1a1a1a" stroke-width="1.8" stroke-linecap="round" fill="none"/>
  <path d="M32 5 V51" stroke="#1a1a1a" stroke-width="1.8" fill="none"/>
  <path d="M43 6 Q46 28 42 51" stroke="#1a1a1a" stroke-width="1.8" stroke-linecap="round" fill="none"/>
  <!-- Franja blanca -->
  <rect x="19" y="49" width="26" height="4" fill="#fff" stroke="#1a1a1a" stroke-width="1.5"/>
  <!-- Cuerdas a la cesta -->
  <line x1="24" y1="53" x2="28" y2="57" stroke="#1a1a1a" stroke-width="1.5"/>
  <line x1="40" y1="53" x2="36" y2="57" stroke="#1a1a1a" stroke-width="1.5"/>
  <!-- Cesta -->
  <path d="M26 57 H38 L36 62 H28 Z" fill="#8b5a3c" stroke="#1a1a1a" stroke-width="2" stroke-linejoin="round"/>
</svg>
